<mxfile host="" modified="2021-02-05T03:03:48.378Z" agent="5.0 (Macintosh; Intel Mac OS X 10_16_0) AppleWebKit/537.36 (KHTML, like Gecko) Chrome/84.0.4147.105 Safari/537.36" etag="PmGuRcUJsiI5T3nhxxVg" version="13.7.9" type="embed"><diagram id="UTzRrUBdHlpDAepOmbyG" name="Page-1"><mxGraphModel dx="1809" dy="2010" grid="1" gridSize="10" guides="1" tooltips="1" connect="1" arrows="1" fold="1" page="1" pageScale="1" pageWidth="827" pageHeight="1169" math="0" shadow="0"><root><mxCell id="0"/><mxCell id="1" parent="0"/><mxCell id="484Vqte_0aY-zLC1-yI5-16" value="" style="endArrow=open;endFill=1;endSize=12;html=1;" parent="1" source="KutUlDE5RUzrDzT60DcY-48" target="KutUlDE5RUzrDzT60DcY-60" edge="1"><mxGeometry width="160" relative="1" as="geometry"><mxPoint x="300" y="-440" as="sourcePoint"/><mxPoint x="460" y="-440" as="targetPoint"/><Array as="points"><mxPoint x="250" y="167"/></Array></mxGeometry></mxCell><mxCell id="HbkX1wtmfrWM2JTnb59R-5" value="Projeto" style="swimlane;fontStyle=1;align=center;verticalAlign=top;childLayout=stackLayout;horizontal=1;startSize=26;horizontalStack=0;resizeParent=1;resizeParentMax=0;resizeLast=0;collapsible=1;marginBottom=0;" parent="1" vertex="1"><mxGeometry x="-405" y="-280" width="200" height="118" as="geometry"/></mxCell><mxCell id="HbkX1wtmfrWM2JTnb59R-6" value="+ string:titulo&#10;+ string:descricao&#10;+ array&lt;Objetivo&gt;:objetivos&#10;+ string:perfilProfissional&#10;+ bool:aprovado&#10;" style="text;strokeColor=none;fillColor=none;align=left;verticalAlign=top;spacingLeft=4;spacingRight=4;overflow=hidden;rotatable=0;points=[[0,0.5],[1,0.5]];portConstraint=eastwest;" parent="HbkX1wtmfrWM2JTnb59R-5" vertex="1"><mxGeometry y="26" width="200" height="84" as="geometry"/></mxCell><mxCell id="HbkX1wtmfrWM2JTnb59R-7" value="" style="line;strokeWidth=1;fillColor=none;align=left;verticalAlign=middle;spacingTop=-1;spacingLeft=3;spacingRight=3;rotatable=0;labelPosition=right;points=[];portConstraint=eastwest;" parent="HbkX1wtmfrWM2JTnb59R-5" vertex="1"><mxGeometry y="110" width="200" height="8" as="geometry"/></mxCell><mxCell id="484Vqte_0aY-zLC1-yI5-24" value="" style="endArrow=diamondThin;endFill=0;endSize=24;html=1;" parent="1" source="KutUlDE5RUzrDzT60DcY-52" target="KutUlDE5RUzrDzT60DcY-56" edge="1"><mxGeometry width="160" relative="1" as="geometry"><mxPoint x="590" y="-430" as="sourcePoint"/><mxPoint x="750" y="-430" as="targetPoint"/></mxGeometry></mxCell><mxCell id="E5fywX1vE359T4CWGSiY-1" value="" style="endArrow=diamondThin;endFill=1;endSize=24;html=1;entryX=0.3;entryY=0.75;entryDx=0;entryDy=0;entryPerimeter=0;exitX=0.994;exitY=0.364;exitDx=0;exitDy=0;exitPerimeter=0;" parent="1" source="_Y9MNjo3REweXl93o-yV-8" target="HbkX1wtmfrWM2JTnb59R-7" edge="1"><mxGeometry width="160" relative="1" as="geometry"><mxPoint x="860" y="-136" as="sourcePoint"/><mxPoint x="-346" y="-135.01199999999994" as="targetPoint"/><Array as="points"><mxPoint x="-346" y="-47"/></Array></mxGeometry></mxCell><mxCell id="r8humelKKZTn6ag4jBME-1" value="" style="endArrow=diamondThin;endFill=1;endSize=24;html=1;entryX=0.3;entryY=0.011;entryDx=0;entryDy=0;entryPerimeter=0;" parent="1" source="HbkX1wtmfrWM2JTnb59R-26" target="HbkX1wtmfrWM2JTnb59R-5" edge="1"><mxGeometry width="160" relative="1" as="geometry"><mxPoint x="510.96000000000004" y="-335.00199999999995" as="sourcePoint"/><mxPoint x="360" y="-334.9760000000001" as="targetPoint"/><Array as="points"><mxPoint x="-345" y="-320"/></Array></mxGeometry></mxCell><mxCell id="KutUlDE5RUzrDzT60DcY-1" value="Notificacao" style="swimlane;fontStyle=1;align=center;verticalAlign=top;childLayout=stackLayout;horizontal=1;startSize=26;horizontalStack=0;resizeParent=1;resizeParentMax=0;resizeLast=0;collapsible=1;marginBottom=0;" parent="1" vertex="1"><mxGeometry x="210" y="-619" width="160" height="88" as="geometry"/></mxCell><mxCell id="KutUlDE5RUzrDzT60DcY-2" value="+ Utilizador:enviadoPor&#10;+ string:mensagem&#10;+ date:date" style="text;strokeColor=none;fillColor=none;align=left;verticalAlign=top;spacingLeft=4;spacingRight=4;overflow=hidden;rotatable=0;points=[[0,0.5],[1,0.5]];portConstraint=eastwest;" parent="KutUlDE5RUzrDzT60DcY-1" vertex="1"><mxGeometry y="26" width="160" height="54" as="geometry"/></mxCell><mxCell id="KutUlDE5RUzrDzT60DcY-3" value="" style="line;strokeWidth=1;fillColor=none;align=left;verticalAlign=middle;spacingTop=-1;spacingLeft=3;spacingRight=3;rotatable=0;labelPosition=right;points=[];portConstraint=eastwest;" parent="KutUlDE5RUzrDzT60DcY-1" vertex="1"><mxGeometry y="80" width="160" height="8" as="geometry"/></mxCell><mxCell id="KutUlDE5RUzrDzT60DcY-5" value="Extends" style="endArrow=block;endSize=16;endFill=0;html=1;" parent="1" source="KutUlDE5RUzrDzT60DcY-56" target="HbkX1wtmfrWM2JTnb59R-1" edge="1"><mxGeometry width="160" relative="1" as="geometry"><mxPoint x="30" y="-570" as="sourcePoint"/><mxPoint x="210" y="-480" as="targetPoint"/></mxGeometry></mxCell><mxCell id="KutUlDE5RUzrDzT60DcY-6" value="Extends" style="endArrow=block;endSize=16;endFill=0;html=1;" parent="1" source="KutUlDE5RUzrDzT60DcY-44" target="HbkX1wtmfrWM2JTnb59R-1" edge="1"><mxGeometry width="160" relative="1" as="geometry"><mxPoint x="50" y="-150" as="sourcePoint"/><mxPoint x="31" y="-419" as="targetPoint"/></mxGeometry></mxCell><mxCell id="KutUlDE5RUzrDzT60DcY-8" value="" style="endArrow=diamondThin;endFill=0;endSize=24;html=1;" parent="1" source="KutUlDE5RUzrDzT60DcY-1" target="HbkX1wtmfrWM2JTnb59R-1" edge="1"><mxGeometry width="160" relative="1" as="geometry"><mxPoint x="-100" y="-420" as="sourcePoint"/><mxPoint x="300" y="-390" as="targetPoint"/></mxGeometry></mxCell><mxCell id="KutUlDE5RUzrDzT60DcY-9" value="Extends" style="endArrow=block;endSize=16;endFill=0;html=1;" parent="1" source="KutUlDE5RUzrDzT60DcY-60" target="HbkX1wtmfrWM2JTnb59R-1" edge="1"><mxGeometry width="160" relative="1" as="geometry"><mxPoint x="-60" y="-490" as="sourcePoint"/><mxPoint x="100" y="-490" as="targetPoint"/></mxGeometry></mxCell><mxCell id="KutUlDE5RUzrDzT60DcY-10" value="Extends" style="endArrow=block;endSize=16;endFill=0;html=1;entryX=0.773;entryY=1.125;entryDx=0;entryDy=0;entryPerimeter=0;exitX=1;exitY=0.859;exitDx=0;exitDy=0;exitPerimeter=0;" parent="1" source="KutUlDE5RUzrDzT60DcY-49" target="HbkX1wtmfrWM2JTnb59R-3" edge="1"><mxGeometry width="160" relative="1" as="geometry"><mxPoint x="-120" y="-420" as="sourcePoint"/><mxPoint x="40" y="-420" as="targetPoint"/><Array as="points"><mxPoint x="200" y="140"/><mxPoint x="200" y="-200"/><mxPoint x="80" y="-200"/></Array></mxGeometry></mxCell><mxCell id="KutUlDE5RUzrDzT60DcY-11" value="Extends" style="endArrow=block;endSize=16;endFill=0;html=1;" parent="1" source="KutUlDE5RUzrDzT60DcY-52" target="HbkX1wtmfrWM2JTnb59R-1" edge="1"><mxGeometry width="160" relative="1" as="geometry"><mxPoint x="-120" y="-420" as="sourcePoint"/><mxPoint x="40" y="-420" as="targetPoint"/></mxGeometry></mxCell><mxCell id="KutUlDE5RUzrDzT60DcY-12" value="" style="endArrow=diamondThin;endFill=0;endSize=24;html=1;entryX=0;entryY=0.111;entryDx=0;entryDy=0;entryPerimeter=0;" parent="1" source="KutUlDE5RUzrDzT60DcY-44" target="KutUlDE5RUzrDzT60DcY-51" edge="1"><mxGeometry width="160" relative="1" as="geometry"><mxPoint x="-210" y="-170" as="sourcePoint"/><mxPoint x="-50" y="-170" as="targetPoint"/><Array as="points"><mxPoint x="-760" y="-969"/><mxPoint x="-760" y="170"/></Array></mxGeometry></mxCell><mxCell id="KutUlDE5RUzrDzT60DcY-13" value="" style="endArrow=diamondThin;endFill=0;endSize=24;html=1;" parent="1" source="KutUlDE5RUzrDzT60DcY-44" target="KutUlDE5RUzrDzT60DcY-52" edge="1"><mxGeometry width="160" relative="1" as="geometry"><mxPoint x="-55.00000000000023" y="-35" as="sourcePoint"/><mxPoint x="-140.00000000000023" y="-35" as="targetPoint"/><Array as="points"/></mxGeometry></mxCell><mxCell id="KutUlDE5RUzrDzT60DcY-14" value="" style="endArrow=diamondThin;endFill=0;endSize=24;html=1;" parent="1" source="KutUlDE5RUzrDzT60DcY-44" target="KutUlDE5RUzrDzT60DcY-60" edge="1"><mxGeometry width="160" relative="1" as="geometry"><mxPoint x="724.4664634146338" y="840" as="sourcePoint"/><mxPoint x="893.5518292682927" y="652" as="targetPoint"/><Array as="points"><mxPoint x="450" y="-970"/><mxPoint x="450" y="-290"/></Array></mxGeometry></mxCell><mxCell id="KutUlDE5RUzrDzT60DcY-15" value="" style="endArrow=diamondThin;endFill=0;endSize=24;html=1;" parent="1" source="KutUlDE5RUzrDzT60DcY-48" target="HbkX1wtmfrWM2JTnb59R-5" edge="1"><mxGeometry width="160" relative="1" as="geometry"><mxPoint x="-55.00000000000023" y="-0.7547169811321055" as="sourcePoint"/><mxPoint x="-140.00000000000023" y="-18.39622641509436" as="targetPoint"/></mxGeometry></mxCell><mxCell id="KutUlDE5RUzrDzT60DcY-24" value="" style="endArrow=open;endFill=1;endSize=12;html=1;" parent="1" source="KutUlDE5RUzrDzT60DcY-52" target="HbkX1wtmfrWM2JTnb59R-5" edge="1"><mxGeometry width="160" relative="1" as="geometry"><mxPoint x="-379.9999999999998" y="-690.9354838709676" as="sourcePoint"/><mxPoint x="160" y="-600" as="targetPoint"/></mxGeometry></mxCell><mxCell id="KutUlDE5RUzrDzT60DcY-28" value="" style="endArrow=open;endFill=1;endSize=12;html=1;entryX=0;entryY=0.5;entryDx=0;entryDy=0;exitX=0;exitY=0.589;exitDx=0;exitDy=0;exitPerimeter=0;" parent="1" source="KutUlDE5RUzrDzT60DcY-55" target="KutUlDE5RUzrDzT60DcY-49" edge="1"><mxGeometry width="160" relative="1" as="geometry"><mxPoint x="-330" y="-514" as="sourcePoint"/><mxPoint x="-112.94117647058829" y="-900" as="targetPoint"/><Array as="points"><mxPoint x="-490" y="-510"/><mxPoint x="-750" y="-510"/><mxPoint x="-750" y="123"/></Array></mxGeometry></mxCell><mxCell id="KutUlDE5RUzrDzT60DcY-29" value="Preferencia" style="swimlane;fontStyle=1;align=center;verticalAlign=top;childLayout=stackLayout;horizontal=1;startSize=26;horizontalStack=0;resizeParent=1;resizeParentMax=0;resizeLast=0;collapsible=1;marginBottom=0;" parent="1" vertex="1"><mxGeometry x="-670" y="-606" width="160" height="60" as="geometry"/></mxCell><mxCell id="KutUlDE5RUzrDzT60DcY-30" value="+ int:prioridade" style="text;strokeColor=none;fillColor=none;align=left;verticalAlign=top;spacingLeft=4;spacingRight=4;overflow=hidden;rotatable=0;points=[[0,0.5],[1,0.5]];portConstraint=eastwest;" parent="KutUlDE5RUzrDzT60DcY-29" vertex="1"><mxGeometry y="26" width="160" height="26" as="geometry"/></mxCell><mxCell id="KutUlDE5RUzrDzT60DcY-31" value="" style="line;strokeWidth=1;fillColor=none;align=left;verticalAlign=middle;spacingTop=-1;spacingLeft=3;spacingRight=3;rotatable=0;labelPosition=right;points=[];portConstraint=eastwest;" parent="KutUlDE5RUzrDzT60DcY-29" vertex="1"><mxGeometry y="52" width="160" height="8" as="geometry"/></mxCell><mxCell id="KutUlDE5RUzrDzT60DcY-34" value="" style="endArrow=open;endFill=1;endSize=12;html=1;" parent="1" source="KutUlDE5RUzrDzT60DcY-52" target="KutUlDE5RUzrDzT60DcY-29" edge="1"><mxGeometry width="160" relative="1" as="geometry"><mxPoint x="120" y="-570" as="sourcePoint"/><mxPoint x="280" y="-570" as="targetPoint"/></mxGeometry></mxCell><mxCell id="KutUlDE5RUzrDzT60DcY-36" value="" style="endArrow=diamondThin;endFill=0;endSize=24;html=1;exitX=1;exitY=0.5;exitDx=0;exitDy=0;" parent="1" source="KutUlDE5RUzrDzT60DcY-49" target="KutUlDE5RUzrDzT60DcY-56" edge="1"><mxGeometry width="160" relative="1" as="geometry"><mxPoint x="-206.98275862068976" y="-900" as="sourcePoint"/><mxPoint x="-200.8620689655172" y="-687" as="targetPoint"/><Array as="points"><mxPoint x="40" y="120"/></Array></mxGeometry></mxCell><mxCell id="KutUlDE5RUzrDzT60DcY-44" value="Diretor" style="swimlane;fontStyle=1;align=center;verticalAlign=top;childLayout=stackLayout;horizontal=1;startSize=26;horizontalStack=0;resizeParent=1;resizeParentMax=0;resizeLast=0;collapsible=1;marginBottom=0;" parent="1" vertex="1"><mxGeometry x="-65" y="-1130" width="200" height="330" as="geometry"/></mxCell><mxCell id="KutUlDE5RUzrDzT60DcY-45" value="+ string:nome&#10;+ string:email&#10;+ double:telemovel&#10;+ string:username&#10;+ string:password&#10;+ date:dataPubliPropostas&#10;+ int:maxPrefs" style="text;strokeColor=none;fillColor=none;align=left;verticalAlign=top;spacingLeft=4;spacingRight=4;overflow=hidden;rotatable=0;points=[[0,0.5],[1,0.5]];portConstraint=eastwest;" parent="KutUlDE5RUzrDzT60DcY-44" vertex="1"><mxGeometry y="26" width="200" height="114" as="geometry"/></mxCell><mxCell id="KutUlDE5RUzrDzT60DcY-46" value="" style="line;strokeWidth=1;fillColor=none;align=left;verticalAlign=middle;spacingTop=-1;spacingLeft=3;spacingRight=3;rotatable=0;labelPosition=right;points=[];portConstraint=eastwest;" parent="KutUlDE5RUzrDzT60DcY-44" vertex="1"><mxGeometry y="140" width="200" height="8" as="geometry"/></mxCell><mxCell id="KutUlDE5RUzrDzT60DcY-47" value="+ Entidade:listarEntidades()&#10;+ Estagiario:listarEstagiarios()&#10;+ Supervisor:listarSupervisores()&#10;+ Projeto:listarProjetos()&#10;+ Estagiario:detalhesEstagiario()&#10;+ Projeto:detalhesProjeto()&#10;+ Entidade:createEntidade()&#10;+ Supervisor:createSupervisor()&#10;+ bool:confs()&#10;+ string:justificarReprovacao()&#10;+ bool:atribuirPropostaAluno()&#10;+ bool:atribuirPropostaSupervisor()&#10;" style="text;strokeColor=none;fillColor=none;align=left;verticalAlign=top;spacingLeft=4;spacingRight=4;overflow=hidden;rotatable=0;points=[[0,0.5],[1,0.5]];portConstraint=eastwest;" parent="KutUlDE5RUzrDzT60DcY-44" vertex="1"><mxGeometry y="148" width="200" height="182" as="geometry"/></mxCell><mxCell id="KutUlDE5RUzrDzT60DcY-48" value="Entidade" style="swimlane;fontStyle=1;align=center;verticalAlign=top;childLayout=stackLayout;horizontal=1;startSize=26;horizontalStack=0;resizeParent=1;resizeParentMax=0;resizeLast=0;collapsible=1;marginBottom=0;" parent="1" vertex="1"><mxGeometry x="-405" y="70" width="200" height="196" as="geometry"/></mxCell><mxCell id="KutUlDE5RUzrDzT60DcY-49" value="+ string:nome&#10;+ string:abreviatura&#10;+ string:descricao" style="text;strokeColor=none;fillColor=none;align=left;verticalAlign=top;spacingLeft=4;spacingRight=4;overflow=hidden;rotatable=0;points=[[0,0.5],[1,0.5]];portConstraint=eastwest;" parent="KutUlDE5RUzrDzT60DcY-48" vertex="1"><mxGeometry y="26" width="200" height="54" as="geometry"/></mxCell><mxCell id="KutUlDE5RUzrDzT60DcY-50" value="" style="line;strokeWidth=1;fillColor=none;align=left;verticalAlign=middle;spacingTop=-1;spacingLeft=3;spacingRight=3;rotatable=0;labelPosition=right;points=[];portConstraint=eastwest;" parent="KutUlDE5RUzrDzT60DcY-48" vertex="1"><mxGeometry y="80" width="200" height="8" as="geometry"/></mxCell><mxCell id="KutUlDE5RUzrDzT60DcY-51" value="+ Projeto:listarProjeto()&#10;+ Projeto:editarProjeto()&#10;+ Projeto:detalhesProjeto()&#10;+ Orientador:listarOrientadores()&#10;+ bool:addProposta()&#10;+ bool:editProposta()&#10;+ bool:removeProposta()" style="text;strokeColor=none;fillColor=none;align=left;verticalAlign=top;spacingLeft=4;spacingRight=4;overflow=hidden;rotatable=0;points=[[0,0.5],[1,0.5]];portConstraint=eastwest;" parent="KutUlDE5RUzrDzT60DcY-48" vertex="1"><mxGeometry y="88" width="200" height="108" as="geometry"/></mxCell><mxCell id="KutUlDE5RUzrDzT60DcY-52" value="Estagiario" style="swimlane;fontStyle=1;align=center;verticalAlign=top;childLayout=stackLayout;horizontal=1;startSize=26;horizontalStack=0;resizeParent=1;resizeParentMax=0;resizeLast=0;collapsible=1;marginBottom=0;" parent="1" vertex="1"><mxGeometry x="-385" y="-680" width="160" height="208" as="geometry"/></mxCell><mxCell id="KutUlDE5RUzrDzT60DcY-53" value="+ string:nome&#10;+ string:username&#10;+ string:password&#10;+ string:email&#10;+ double:telemovel" style="text;strokeColor=none;fillColor=none;align=left;verticalAlign=top;spacingLeft=4;spacingRight=4;overflow=hidden;rotatable=0;points=[[0,0.5],[1,0.5]];portConstraint=eastwest;" parent="KutUlDE5RUzrDzT60DcY-52" vertex="1"><mxGeometry y="26" width="160" height="84" as="geometry"/></mxCell><mxCell id="KutUlDE5RUzrDzT60DcY-54" value="" style="line;strokeWidth=1;fillColor=none;align=left;verticalAlign=middle;spacingTop=-1;spacingLeft=3;spacingRight=3;rotatable=0;labelPosition=right;points=[];portConstraint=eastwest;" parent="KutUlDE5RUzrDzT60DcY-52" vertex="1"><mxGeometry y="110" width="160" height="8" as="geometry"/></mxCell><mxCell id="KutUlDE5RUzrDzT60DcY-55" value="+ escolherProjeto()&#10;+ Projeto:listarProjetos()&#10;+ Projeto:detalhesProjeto()&#10;+ bool:consultarProposta()&#10;+ bool:escolherProposta()" style="text;strokeColor=none;fillColor=none;align=left;verticalAlign=top;spacingLeft=4;spacingRight=4;overflow=hidden;rotatable=0;points=[[0,0.5],[1,0.5]];portConstraint=eastwest;" parent="KutUlDE5RUzrDzT60DcY-52" vertex="1"><mxGeometry y="118" width="160" height="90" as="geometry"/></mxCell><mxCell id="KutUlDE5RUzrDzT60DcY-56" value="Orientador" style="swimlane;fontStyle=1;align=center;verticalAlign=top;childLayout=stackLayout;horizontal=1;startSize=26;horizontalStack=0;resizeParent=1;resizeParentMax=0;resizeLast=0;collapsible=1;marginBottom=0;" parent="1" vertex="1"><mxGeometry x="-40" y="-150" width="160" height="88" as="geometry"/></mxCell><mxCell id="KutUlDE5RUzrDzT60DcY-57" value="+ string:nome&#10;+ string:email&#10;+ double:telemovel" style="text;strokeColor=none;fillColor=none;align=left;verticalAlign=top;spacingLeft=4;spacingRight=4;overflow=hidden;rotatable=0;points=[[0,0.5],[1,0.5]];portConstraint=eastwest;" parent="KutUlDE5RUzrDzT60DcY-56" vertex="1"><mxGeometry y="26" width="160" height="54" as="geometry"/></mxCell><mxCell id="KutUlDE5RUzrDzT60DcY-58" value="" style="line;strokeWidth=1;fillColor=none;align=left;verticalAlign=middle;spacingTop=-1;spacingLeft=3;spacingRight=3;rotatable=0;labelPosition=right;points=[];portConstraint=eastwest;" parent="KutUlDE5RUzrDzT60DcY-56" vertex="1"><mxGeometry y="80" width="160" height="8" as="geometry"/></mxCell><mxCell id="KutUlDE5RUzrDzT60DcY-60" value="Supervisor" style="swimlane;fontStyle=1;align=center;verticalAlign=top;childLayout=stackLayout;horizontal=1;startSize=26;horizontalStack=0;resizeParent=1;resizeParentMax=0;resizeLast=0;collapsible=1;marginBottom=0;" parent="1" vertex="1"><mxGeometry x="170" y="-350" width="160" height="118" as="geometry"/></mxCell><mxCell id="KutUlDE5RUzrDzT60DcY-61" value="+ string:nome&#10;+ string:username&#10;+ string:password&#10;+ string:email&#10;+ double:telemovel" style="text;strokeColor=none;fillColor=none;align=left;verticalAlign=top;spacingLeft=4;spacingRight=4;overflow=hidden;rotatable=0;points=[[0,0.5],[1,0.5]];portConstraint=eastwest;" parent="KutUlDE5RUzrDzT60DcY-60" vertex="1"><mxGeometry y="26" width="160" height="84" as="geometry"/></mxCell><mxCell id="KutUlDE5RUzrDzT60DcY-62" value="" style="line;strokeWidth=1;fillColor=none;align=left;verticalAlign=middle;spacingTop=-1;spacingLeft=3;spacingRight=3;rotatable=0;labelPosition=right;points=[];portConstraint=eastwest;" parent="KutUlDE5RUzrDzT60DcY-60" vertex="1"><mxGeometry y="110" width="160" height="8" as="geometry"/></mxCell><mxCell id="HbkX1wtmfrWM2JTnb59R-26" value="Objetivo" style="swimlane;fontStyle=1;align=center;verticalAlign=top;childLayout=stackLayout;horizontal=1;startSize=30;horizontalStack=0;resizeParent=1;resizeParentMax=0;resizeLast=0;collapsible=1;marginBottom=0;" parent="1" vertex="1"><mxGeometry x="-690" y="-350" width="200" height="58" as="geometry"/></mxCell><mxCell id="HbkX1wtmfrWM2JTnb59R-27" value="+ string:Descricao" style="text;strokeColor=none;fillColor=none;align=left;verticalAlign=top;spacingLeft=4;spacingRight=4;overflow=hidden;rotatable=0;points=[[0,0.5],[1,0.5]];portConstraint=eastwest;" parent="HbkX1wtmfrWM2JTnb59R-26" vertex="1"><mxGeometry y="30" width="200" height="20" as="geometry"/></mxCell><mxCell id="HbkX1wtmfrWM2JTnb59R-28" value="" style="line;strokeWidth=1;fillColor=none;align=left;verticalAlign=middle;spacingTop=-1;spacingLeft=3;spacingRight=3;rotatable=0;labelPosition=right;points=[];portConstraint=eastwest;" parent="HbkX1wtmfrWM2JTnb59R-26" vertex="1"><mxGeometry y="50" width="200" height="8" as="geometry"/></mxCell><mxCell id="_Y9MNjo3REweXl93o-yV-7" value="Cronograma" style="swimlane;fontStyle=1;align=center;verticalAlign=top;childLayout=stackLayout;horizontal=1;startSize=26;horizontalStack=0;resizeParent=1;resizeParentMax=0;resizeLast=0;collapsible=1;marginBottom=0;" parent="1" vertex="1"><mxGeometry x="-670" y="-90" width="160" height="70" as="geometry"/></mxCell><mxCell id="_Y9MNjo3REweXl93o-yV-8" value="+ string:descrição&#10;+ string:duracao" style="text;strokeColor=none;fillColor=none;align=left;verticalAlign=top;spacingLeft=4;spacingRight=4;overflow=hidden;rotatable=0;points=[[0,0.5],[1,0.5]];portConstraint=eastwest;" parent="_Y9MNjo3REweXl93o-yV-7" vertex="1"><mxGeometry y="26" width="160" height="44" as="geometry"/></mxCell><mxCell id="_Y9MNjo3REweXl93o-yV-9" value="" style="line;strokeWidth=1;fillColor=none;align=left;verticalAlign=middle;spacingTop=-1;spacingLeft=3;spacingRight=3;rotatable=0;labelPosition=right;points=[];portConstraint=eastwest;" parent="_Y9MNjo3REweXl93o-yV-7" vertex="1"><mxGeometry y="70" width="160" as="geometry"/></mxCell><mxCell id="HbkX1wtmfrWM2JTnb59R-1" value="Utilizador" style="swimlane;fontStyle=1;align=center;verticalAlign=top;childLayout=stackLayout;horizontal=1;startSize=26;horizontalStack=0;resizeParent=1;resizeParentMax=0;resizeLast=0;collapsible=1;marginBottom=0;" parent="1" vertex="1"><mxGeometry x="-45" y="-660" width="160" height="170" as="geometry"/></mxCell><mxCell id="HbkX1wtmfrWM2JTnb59R-2" value="+ string:nome&#10;+ string:email&#10;+ double:telemovel&#10;+ string:abreviatura&#10;+ string:descrição &#10;+ string: username&#10;+ string: password&#10;+ date: dataPubliPropostas&#10;+ int: maxPrefs" style="text;strokeColor=none;fillColor=none;align=left;verticalAlign=top;spacingLeft=4;spacingRight=4;overflow=hidden;rotatable=0;points=[[0,0.5],[1,0.5]];portConstraint=eastwest;" parent="HbkX1wtmfrWM2JTnb59R-1" vertex="1"><mxGeometry y="26" width="160" height="134" as="geometry"/></mxCell><mxCell id="HbkX1wtmfrWM2JTnb59R-3" value="" style="line;strokeWidth=1;fillColor=none;align=left;verticalAlign=middle;spacingTop=-1;spacingLeft=3;spacingRight=3;rotatable=0;labelPosition=right;points=[];portConstraint=eastwest;" parent="HbkX1wtmfrWM2JTnb59R-1" vertex="1"><mxGeometry y="160" width="160" height="10" as="geometry"/></mxCell></root></mxGraphModel></diagram></mxfile>